HIERARCHY
ROOT joint_Root
{
	OFFSET 0.0 0.0 0.0
	CHANNELS 6 Xposition Yposition Zposition Zrotation Xrotation Yrotation 
	JOINT Hips
	{
		OFFSET -0.726466 93.3139 -2.00062
		CHANNELS 6 Xposition Yposition Zposition Zrotation Xrotation Yrotation 
		JOINT Spine
		{
			OFFSET 15.7357 0.0 0.0
			CHANNELS 6 Xposition Yposition Zposition Zrotation Xrotation Yrotation 
			JOINT Chest
			{
				OFFSET 8.98455 -0.406207 0.0
				CHANNELS 6 Xposition Yposition Zposition Zrotation Xrotation Yrotation 
				JOINT Neck
				{
					OFFSET 16.3773 0.0 0.0
					CHANNELS 6 Xposition Yposition Zposition Zrotation Xrotation Yrotation 
					JOINT Head
					{
						OFFSET 6.45672 0.0 0.0
						CHANNELS 6 Xposition Yposition Zposition Zrotation Xrotation Yrotation 
						End Site
						{
							OFFSET 0.0 0.0 0.0
						}
					}
				}
				JOINT Shoulder_L
				{
					OFFSET 12.9942 -0.242716 4.98039
					CHANNELS 6 Xposition Yposition Zposition Zrotation Xrotation Yrotation 
					JOINT UpperArm_L
					{
						OFFSET 5.34809 0.0 0.0
						CHANNELS 6 Xposition Yposition Zposition Zrotation Xrotation Yrotation 
						JOINT LowerArm_L
						{
							OFFSET 24.3286 1.87007e-05 0.0
							CHANNELS 6 Xposition Yposition Zposition Zrotation Xrotation Yrotation 
							JOINT Hand_L
							{
								OFFSET 22.2916 0.0 0.0
								CHANNELS 6 Xposition Yposition Zposition Zrotation Xrotation Yrotation 
								End Site
								{
									OFFSET 0.0 0.0 0.0
								}
							}
						}
					}
				}
				JOINT Shoulder_R
				{
					OFFSET 12.9945 -0.242716 -4.98039
					CHANNELS 6 Xposition Yposition Zposition Zrotation Xrotation Yrotation 
					JOINT UpperArm_R
					{
						OFFSET -5.34813 0.0 0.0
						CHANNELS 6 Xposition Yposition Zposition Zrotation Xrotation Yrotation 
						JOINT LowerArm_R
						{
							OFFSET -24.3289 0.000322201 0.0
							CHANNELS 6 Xposition Yposition Zposition Zrotation Xrotation Yrotation 
							JOINT Hand_R
							{
								OFFSET -22.2915 -0.000108084 0.0
								CHANNELS 6 Xposition Yposition Zposition Zrotation Xrotation Yrotation 
								End Site
								{
									OFFSET 0.0 0.0 0.0
								}
							}
						}
					}
				}
			}
		}
		JOINT UpperLeg_L
		{
			OFFSET -2.19248 -6.46944 0.0
			CHANNELS 6 Xposition Yposition Zposition Zrotation Xrotation Yrotation 
			JOINT LowerLeg_L
			{
				OFFSET 39.0811 0.0 -1.23785e-05
				CHANNELS 6 Xposition Yposition Zposition Zrotation Xrotation Yrotation 
				JOINT Foot_L
				{
					OFFSET 40.9854 0.0 -1.26872e-05
					CHANNELS 6 Xposition Yposition Zposition Zrotation Xrotation Yrotation 
					JOINT Toes_L
					{
						OFFSET 11.7543 0.0 0.0
						CHANNELS 6 Xposition Yposition Zposition Zrotation Xrotation Yrotation 
						End Site
						{
							OFFSET 0.0 0.0 0.0
						}
					}
				}
			}
		}
		JOINT UpperLeg_R
		{
			OFFSET -2.19251 6.46944 0.0
			CHANNELS 6 Xposition Yposition Zposition Zrotation Xrotation Yrotation 
			JOINT LowerLeg_R
			{
				OFFSET -39.0811 -0.00228153 -0.0401928
				CHANNELS 6 Xposition Yposition Zposition Zrotation Xrotation Yrotation 
				JOINT Foot_R
				{
					OFFSET -40.9854 0.0 0.0
					CHANNELS 6 Xposition Yposition Zposition Zrotation Xrotation Yrotation 
					JOINT Toes_R
					{
						OFFSET -11.7543 0.0 0.0
						CHANNELS 6 Xposition Yposition Zposition Zrotation Xrotation Yrotation 
						End Site
						{
							OFFSET 0.0 0.0 0.0
						}
					}
				}
			}
		}
	}
}
MOTION
Frames:	5
Frame Time:	0.0333333
0.000000 0.000000 0.000000 0.000000 0.000000 -0.000000 120.629000 89.233500 -155.758000 84.050100 2.417580 5.840180 15.735700 0.000005 -0.000001 78.886700 83.275300 -76.193800 8.984550 -0.406207 -0.000000 5.503630 -2.639420 5.507290 16.377300 -0.000001 -0.000001 3.163280 -2.598660 0.097803 6.456720 -0.000001 -0.000000 1.425930 0.054979 1.611880 12.994200 -0.242716 4.980390 -89.528400 -1.562570 -73.202500 5.348090 -0.000007 -0.000001 -68.340200 30.475000 -13.703600 24.328600 0.000019 0.000005 -0.378593 -0.626372 -31.036400 22.291600 -0.000001 0.000005 6.712090 5.490980 -6.161280 12.994500 -0.242716 -4.980390 87.439100 6.648360 -68.877400 -5.348130 -0.000001 -0.000004 -71.133100 29.378000 -6.128380 -24.328900 0.000322 -0.000009 1.742420 7.524940 -13.092800 -22.291500 -0.000108 -0.000004 10.071200 5.325750 -0.662692 -2.192480 -6.469440 -0.000000 -169.658000 -3.117990 -3.547520 39.081100 -0.000007 -0.000012 0.056928 -0.028412 63.472600 40.985400 -0.000006 -0.000013 6.600720 -9.986230 -40.112300 11.754300 -0.000000 0.000003 -0.007254 -0.081838 -19.908600 -2.192510 6.469440 -0.000001 -172.671000 8.613500 163.651000 -39.081100 -0.002282 -0.040193 0.079759 -0.093996 39.133100 -40.985400 0.000008 0.000006 7.016330 -3.474190 -65.770100 -11.754300 -0.000006 -0.000006 -0.011843 -0.116930 -21.339700
0.000000 0.000000 0.000000 0.000000 0.000000 -0.000000 120.469000 89.797600 -152.714000 84.751200 1.150510 6.474590 15.735700 0.000005 -0.000001 85.272000 83.085800 -82.972400 8.984550 -0.406207 -0.000000 6.044080 -1.171210 4.655930 16.377300 -0.000001 -0.000001 2.990470 -2.724430 0.493723 6.456720 -0.000001 -0.000000 1.076540 -1.051910 2.052280 12.994200 -0.242716 4.980390 -89.506600 -1.589720 -72.754900 5.348090 -0.000007 -0.000001 -70.359800 29.974800 -10.987300 24.328600 0.000019 0.000005 0.716067 1.459910 -26.182400 22.291600 -0.000001 0.000005 5.551540 5.462820 -5.100760 12.994500 -0.242716 -4.980390 87.397700 7.024010 -69.611200 -5.348130 -0.000001 -0.000004 -68.822400 32.951700 -10.144100 -24.328900 0.000322 -0.000009 1.644870 5.685080 -16.183300 -22.291500 -0.000108 -0.000004 10.596900 5.344310 -1.205930 -2.192480 -6.469440 -0.000000 -170.940000 -4.652490 -7.906100 39.081100 -0.000007 -0.000012 0.046909 -0.017885 69.123200 40.985400 -0.000006 -0.000013 6.722700 -11.500500 -44.640700 11.754300 -0.000000 0.000003 -0.007282 -0.082078 -19.918400 -2.192510 6.469440 -0.000001 -173.464000 7.584650 167.728000 -39.081100 -0.002282 -0.040193 0.076309 -0.096519 37.110000 -40.985400 0.000008 0.000006 7.005160 -3.465850 -66.913000 -11.754300 -0.000006 -0.000006 -0.011647 -0.115560 -21.283600
0.000000 0.000000 0.000000 0.000000 0.000000 -0.000000 120.464000 90.400100 -149.898000 85.662500 -0.200360 6.659750 15.735700 0.000005 -0.000001 90.202600 82.901300 -88.344000 8.984550 -0.406207 -0.000000 6.433510 0.028505 3.711440 16.377300 -0.000001 -0.000001 2.936160 -2.573850 0.663055 6.456720 -0.000001 -0.000000 0.708264 -2.040230 2.237410 12.994200 -0.242716 4.980390 -89.449400 -1.695650 -72.008300 5.348090 -0.000007 -0.000001 -72.418200 28.681800 -8.291090 24.328600 0.000019 0.000005 1.481380 3.751620 -21.585600 22.291600 -0.000001 0.000005 5.132460 5.443760 -4.418180 12.994500 -0.242716 -4.980390 87.511700 7.099880 -70.629400 -5.348130 -0.000001 -0.000004 -65.496300 35.925100 -15.439500 -24.328900 0.000322 -0.000009 1.630030 4.826010 -18.699900 -22.291500 -0.000108 -0.000004 11.283700 5.369210 -1.961730 -2.192480 -6.469440 -0.000000 -172.616000 -6.155690 -12.433300 39.081100 -0.000007 -0.000012 0.042352 -0.014117 71.558000 40.985400 -0.000006 -0.000013 6.461270 -11.053900 -47.094300 11.754300 -0.000000 0.000003 -0.007261 -0.081897 -19.911000 -2.192510 6.469440 -0.000001 -174.708000 7.634990 171.374000 -39.081100 -0.002282 -0.040193 0.070538 -0.097451 34.607800 -40.985400 0.000008 0.000006 7.142370 -2.158580 -67.620400 -11.754300 -0.000006 -0.000006 -0.011516 -0.114638 -21.245800
0.000000 0.000000 0.000000 0.000000 0.000000 -0.000000 120.499000 90.949400 -147.276000 86.422200 -1.116280 6.379250 15.735700 0.000005 -0.000001 93.933500 82.866600 -92.434900 8.984550 -0.406207 -0.000000 6.457140 0.958663 2.939920 16.377300 -0.000001 -0.000001 3.090330 -2.464060 0.799512 6.456720 -0.000001 -0.000000 0.264290 -2.940100 2.040300 12.994200 -0.242716 4.980390 -89.299900 -2.069670 -71.306900 5.348090 -0.000007 -0.000001 -74.605300 26.599500 -5.501460 24.328600 0.000019 0.000005 1.878050 5.890100 -17.728200 22.291600 -0.000001 0.000005 5.357970 5.419910 -3.597110 12.994500 -0.242716 -4.980390 87.723500 6.724530 -71.248500 -5.348130 -0.000001 -0.000004 -62.033200 37.446500 -21.145300 -24.328900 0.000322 -0.000009 1.704560 4.508740 -20.745900 -22.291500 -0.000108 -0.000004 11.368600 5.381470 -2.344830 -2.192480 -6.469440 -0.000000 -174.239000 -6.955740 -17.019100 39.081100 -0.000007 -0.000012 0.033661 -0.011542 71.064500 40.985400 -0.000006 -0.000013 5.743470 -9.854600 -49.560000 11.754300 -0.000000 0.000003 -0.006703 -0.077101 -19.715300 -2.192510 6.469440 -0.000001 -175.849000 7.817020 174.484000 -39.081100 -0.002282 -0.040193 0.061057 -0.093252 31.773500 -40.985400 0.000008 0.000006 7.137710 -0.938901 -67.907500 -11.754300 -0.000006 -0.000006 -0.011374 -0.113633 -21.204600
0.000000 0.000000 0.000000 0.000000 0.000000 -0.000000 120.581000 91.394500 -144.758000 87.223200 -2.008920 6.075860 15.735700 0.000005 -0.000001 96.962300 82.837000 -95.839300 8.984550 -0.406207 -0.000000 6.440590 1.718360 2.146970 16.377300 -0.000001 -0.000001 3.236270 -2.372230 0.843191 6.456720 -0.000001 -0.000000 -0.272557 -3.531840 1.670060 12.994200 -0.242716 4.980390 -89.165200 -2.375220 -70.628500 5.348090 -0.000007 -0.000001 -76.186400 24.054800 -2.643850 24.328600 0.000019 0.000005 1.928930 7.205540 -15.030500 22.291600 -0.000001 0.000005 5.602420 5.388160 -2.557270 12.994500 -0.242716 -4.980390 87.944800 6.253810 -71.767100 -5.348130 -0.000001 -0.000004 -59.250200 37.232100 -26.230000 -24.328900 0.000322 -0.000009 1.627960 3.868340 -22.865100 -22.291500 -0.000108 -0.000004 11.178000 5.374480 -2.125910 -2.192480 -6.469440 -0.000000 -175.715000 -7.401670 -20.509800 39.081100 -0.000007 -0.000012 0.028148 -0.011821 67.210300 40.985400 -0.000006 -0.000013 5.345950 -7.733770 -52.365900 11.754300 -0.000000 0.000003 -0.005766 -0.068701 -19.372700 -2.192510 6.469440 -0.000001 -177.131000 8.050350 177.468000 -39.081100 -0.002282 -0.040193 0.048673 -0.082164 28.906600 -40.985400 0.000008 0.000006 7.119720 0.335561 -68.098100 -11.754300 -0.000006 -0.000006 -0.011587 -0.115138 -21.266300
